                                                     ÛÛÛÛÛ
                                                   ÛÛÛÛÛÛÛÛÛ
                                                  ÛÛ       ÛÛ
                                                 ÛÛ         Û
                                                 Û          ÛÛ
                                                ÛÛ          ÛÛ
                                                ÛÛ          Û
                                                ÛÛ          ÛÛ
                                                 Û          ÛÛ
                                                 ÛÛ        ÛÛÛ
                                                 Û         ÛÛ
                                                 Û       ÛÛÛ
                                                Û      ÛÛÛÛ
                               ÛÛÛÛÛÛÛÛÛÛÛÛÛÛÛÛÛ      ÛÛ
                             ÛÛÛ            ÛÛ        Û
                           ÛÛ               Û         ÛÛ
                           Û   ÛÛÛÛÛÛÛ     ÛÛ          Û
                           Û   ÛÛÛÛÛÛÛÛÛÛ  Û           ÛÛ   ÛÛÛÛÛ
                           Û   Û       ÛÛÛÛÛ     Û     Û   ÛÛ   ÛÛ
                           Û   Û         ÛÛÛ    ÛÛ     Û   ÛÛ   ÛÛ
                           Û   Û          ÛÛ    ÛÛ     ÛÛ   ÛÛ  ÛÛ
                           Û   Û          ÛÛ    ÛÛ      ÛÛ  ÛÛ  ÛÛ
                           ÛÛ  Û          ÛÛ    ÛÛÛ     ÛÛ  ÛÛ  Û
                           ÛÛ ÛÛ          ÛÛ     ÛÛ      Û  Û  Û
                           ÛÛ ÛÛ          ÛÛ      ÛÛ     ÛÛÛÛ  Û
                            Û ÛÛ          ÛÛ       ÛÛ     ÛÛ  ÛÛ
                            Û ÛÛ          ÛÛ        ÛÛ    ÛÛ  Û
                            Û ÛÛ          ÛÛ        ÛÛ    Û   Û
                            Û  ÛÛÛ        ÛÛ         ÛÛ      ÛÛ
                            Û   ÛÛ        ÛÛ          ÛÛ     Û
                            Û    ÛÛ       ÛÛ         Û ÛÛ   ÛÛ
                 ARTiCHOKE  ÛÛ   ÛÛ       ÛÛ         Û ÛÛ  ÛÛ
                            ÛÛÛÛÛÛ        Û         Û   ÛÛÛÛ
     ÛÛÛÛ   ÛÛÛÛÛ    ÛÛÛÛÛÛ   ÛÛÛÛ ÛÛÛ   ÛÛÛÛ ÛÛÛÛÛÛÛÛÛÛ ÛÛÛÛÛÛÛÛÛ ÛÛÛÛÛÛ
    Û   Û   Û    Û   Û    Û   Û  Û Û Û   Û  Û Û        Û Û       Û Û     Û
   ÛÛ  Û    Û    Û   Û     Û  Û  Û Û Û   Û  Û Û        Û Û      ÛÛ Û     Û
   Û   Û    Û     Û  Û     Û  ÛÛÛÛ Û Û   Û  Û ÛÛ       Û Û      Û  Û      Û
  ÛÛ  Û     Û ÛÛ  ÛÛ Û  Û   Û      Û Û   Û  Û   ÛÛ    ÛÛ Û  ÛÛÛÛ   Û  ÛÛ  Û
  Û   Û     Û ÛÛ   Û Û  ÛÛ  Û ÛÛÛÛ Û  Û  Û  Û   ÛÛÛ ÛÛÛÛ   ÛÛÛÛÛ   Û  ÛÛ   Û
  Û  Û      Û ÛÛ   Û Û  ÛÛ  Û Û  Û Û  ÛÛ Û  Û     Û Û    Û Û       Û  ÛÛ   Û
  Û  ÛÛÛÛÛÛ Û ÛÛ   Û Û  Û   Û Û  Û Û   Û Û  Û     Û Û    Û ÛÛÛÛ    Û  ÛÛ  ÛÛ
  Û       Û Û Û   Û  Û  Û  ÛÛ Û  Û Û   ÛÛÛ  Û     Û Û    Û    Û    Û  Û   Û
  Û       Û Û    ÛÛ  Û     Û  Û  Û Û    ÛÛ  Û     Û Û    Û    Û    Û     ÛÛ
  Û       Û Û    Û   Û    ÛÛ  Û  Û Û     Û  Û     Û Û    Û    Û    Û     Û
  Û       Û Û   ÛÛ   Û    Û   Û  Û Û ÛÛ  Û  Û     Û Û    Û    Û    Û     Û
  ÛÛÛÛÛÛ  Û Û   Û    Û     Û  Û  Û Û ÛÛ     Û     Û Û    Û ÛÛÛÛ    Û     Û
       Û  Û Û  Û     Û     Û  Û  Û Û ÛÛÛ    Û     Û Û    Û Û       Û      Û
    ÛÛÛÛ  Û Û  Û     Û  Û   Û Û  Û Û Û Û    Û     Û Û    Û ÛÛÛÛÛ   Û      Û
   ÛÛÛÛ   Û Û Û      Û  ÛÛ  Û Û  Û Û Û ÛÛ   Û     Û Û    Û  ÛÛÛÛÛ  Û  ÛÛ   Û
  ÛÛ     ÛÛ Û Û      Û Û Û  Û Û ÛÛ Û Û  Û   Û     Û Û    Û      Û  Û  ÛÛÛ  Û
  Û      Û  Û Û      ÛÛÛ ÛÛ Û Û Û  Û Û   Û ÛÛ     ÛÛÛ    Û      ÛÛ Û Û  Û ÛÛ
 ÛÛ     Û   Û Û      ÛÛ   ÛÛÛ ÛÛ   Û Û   Û Û      ÛÛ     Û       Û ÛÛÛ   ÛÛ
 ÛÛÛÛÛÛÛÛ   ÛÛÛ      ÛÛ    Û  ÛÛ   ÛÛÛ    ÛÛ      Û      ÛÛÛÛÛÛÛÛÛ ÛÛ    ÛÛ

      ÛÛÛÛÛÛÛÛÛÛÛÛÛÛÛÛÛÛÛÛÛÛÛÛÛÛÛÛÛÛÛÛ
  ÛÛÛÛÛ                              ÛÛÛÛÛ
 ÛÛ     SPRiNTER proudly presents...     ÛÛ
  ÛÛÛÛÛ                              ÛÛÛÛÛ
      ÛÛÛÛÛÛÛÛÛÛÛÛÛÛÛÛÛÛÛÛÛÛÛÛÛÛÛÛÛÛÛÛ
 
Bo.Burnham.Words.Words.Words.2010.DVDRip.XViD-SPRiNTER
http://www.amazon.com/Words-Bo-Burnham/dp/B00404MBXG

 Date: 2010.10

 Genre : Drama
 Plot  : Bo Burnham is back with a new one-man show full of his patented songs and wordplay, as well as 
	   haikus, dramatic readings, blasphemy, and so much more. In addition to the live performance, the 
	   album includes two studio tracks- the singles "Words Words Words", and "Oh Bo". 


 

      ÛÛÛÛÛÛÛÛÛÛÛÛÛÛÛÛÛ
  ÛÛÛÛÛ               ÛÛÛÛÛ
 ÛÛ     Release notes     ÛÛ
  ÛÛÛÛÛ               ÛÛÛÛÛ
      ÛÛÛÛÛÛÛÛÛÛÛÛÛÛÛÛÛ

	   


      ÛÛÛÛÛÛÛÛÛÛÛ
  ÛÛÛÛÛ         ÛÛÛÛÛ
 ÛÛ    Greetings    ÛÛ
  ÛÛÛÛÛ         ÛÛÛÛÛ
      ÛÛÛÛÛÛÛÛÛÛÛ


NTX aAF FiCO HNR CiNEFiLE AEN HUMANiSM


      ÛÛÛÛÛÛÛÛÛÛÛ
  ÛÛÛÛÛ         ÛÛÛÛÛ
 ÛÛ     Details     ÛÛ
  ÛÛÛÛÛ         ÛÛÛÛÛ
      ÛÛÛÛÛÛÛÛÛÛÛ


Format                           : AVI
Format/Info                      : Audio Video Interleave
File size                        : 700 MiB
Duration                         : 1h 2mn
Overall bit rate                 : 1 564 Kbps
Writing application              : Nandub v1.0rc2
Writing library                  : Nandub build 1852/release

Video
ID                               : 0
Format                           : MPEG-4 Visual
Format profile                   : AdvancedSimple@L5
Format settings, BVOP            : No
Format settings, QPel            : No
Format settings, GMC             : No warppoints
Format settings, Matrix          : Default (H.263)
Codec ID                         : XVID
Codec ID/Hint                    : XviD
Duration                         : 1h 2mn
Bit rate                         : 1 413 Kbps
Width                            : 592 pixels
Height                           : 320 pixels
Display aspect ratio             : 1.850
Frame rate                       : 23.976 fps
Resolution                       : 24 bits
Colorimetry                      : 4:2:0
Scan type                        : Progressive
Bits/(Pixel*Frame)               : 0.311
Stream size                      : 633 MiB (90%)
Writing library                  : XviD 1.2.1 (UTC 2008-12-04)

Audio
ID                               : 1
Format                           : MPEG Audio
Format version                   : Version 1
Format profile                   : Layer 3
Codec ID                         : 55
Codec ID/Hint                    : MP3
Duration                         : 1h 2mn
Bit rate mode                    : Variable
Bit rate                         : 138 Kbps
Channel(s)                       : 2 channels
Sampling rate                    : 48.0 KHz
Resolution                       : 16 bits
Stream size                      : 61.8 MiB (9%)
Alignment                        : Aligned on interleaves
Interleave, duration             : 24 ms (0.58 video frame)
Interleave, preload duration     : 154 ms
Writing library                  : LAME3.89 (alpha)